REM MD5 3e585759641943e561baaaf56c98dba2
FILE "Bakusou Dekotora Densetsu - Otoko Ippiki Yume Kaidou (Japan).bin" BINARY
  TRACK 01 MODE2/2352
    INDEX 01 00:00:00
  TRACK 02 AUDIO
    INDEX 00 52:59:53
    INDEX 01 53:03:20
  TRACK 03 AUDIO
    INDEX 00 57:02:45
    INDEX 01 57:06:40
REM LEADOUT 61:58:17
